# File created by Blade
# Date/Time:  Wed Jan 21 16:02:01 2015
# Frame Rate: 120.000 fps
#------------------------------------------------------
:FULLY-SPECIFIED
:DEGREES
933
root 18.637779 32.729342 -17.380544 -171.929398 3.937426 -176.434658
Spine -19.562260 8.910348 2.942881
Head 12.265282 -4.981987 -7.730560
LeftShoulder -13.432117 -29.435625 -4.673836
LeftArm -42.544915 -8.919602 -49.264724
LeftForeArm 0.094427 0.000000 7.023528
LeftHand -1.504767 -0.000000 2.806950
LeftHandThumb1 -26.253704 0.000000 33.147579
RightShoulder -9.173894 17.938057 -46.846546
RightArm 46.669665 47.392371 -6.696647
RightForeArm -42.663917 0.000000 8.299970
RightHand -0.054578 -0.000000 -17.836393
RightHandThumb1 -24.326973 -0.000000 -32.862282
LeftUpLeg 11.461306 2.582529 -17.265223
LeftLeg -0.541367 -0.000000 0.000000
LeftFoot -36.660797 17.965205 -17.798321
LeftToeBase 25.116225 -0.000000 -0.000000
RightUpLeg -19.248629 12.522504 21.832536
RightLeg -2.635637 -0.000000 0.000000
RightFoot -6.098428 -35.502420 3.112228
RightToeBase 9.226361 -0.000000 -0.000000
934
root 18.640886 32.729706 -17.380483 -171.939408 3.934607 -176.427169
Spine -19.567632 8.927311 2.937757
Head 12.294091 -4.949010 -7.726195
LeftShoulder -13.412152 -29.436697 -4.678568
LeftArm -42.534635 -8.933412 -49.258328
LeftForeArm 0.112428 -0.000000 7.045593
LeftHand -1.515948 -0.000000 2.750575
LeftHandThumb1 -26.253704 0.000000 33.147579
RightShoulder -9.172631 17.891137 -46.822443
RightArm 46.679993 47.443074 -6.715608
RightForeArm -42.660261 -0.000000 8.280367
RightHand -0.011096 0.000000 -17.813421
RightHandThumb1 -24.326973 -0.000000 -32.862282
LeftUpLeg 11.461944 2.590427 -17.254408
LeftLeg -0.524818 -0.000000 0.000000
LeftFoot -36.668518 17.978978 -17.777402
LeftToeBase 25.098958 -0.000000 -0.000000
RightUpLeg -19.247619 12.528099 21.841351
RightLeg -2.616094 -0.000000 0.000000
RightFoot -6.152433 -35.514457 3.186986
RightToeBase 9.199178 -0.000000 -0.000000
935
root 18.643842 32.730116 -17.381102 -171.943880 3.930883 -176.428138
Spine -19.574922 8.933328 2.921273
Head 12.280880 -4.967318 -7.724107
LeftShoulder -13.426088 -29.461614 -4.651839
LeftArm -42.524807 -8.923351 -49.263989
LeftForeArm 0.127091 -0.000000 7.045610
LeftHand -1.489397 -0.000000 2.751555
LeftHandThumb1 -26.253704 0.000000 33.147579
RightShoulder -9.198904 17.866844 -46.815439
RightArm 46.760965 47.496169 -6.636643
RightForeArm -42.717890 -0.000000 8.275863
RightHand -0.021281 -0.000000 -17.804718
RightHandThumb1 -24.326973 -0.000000 -32.862282
LeftUpLeg 11.466016 2.612794 -17.244610
LeftLeg -0.522254 -0.000000 0.000000
LeftFoot -36.663249 17.967230 -17.779589
LeftToeBase 25.113980 -0.000000 -0.000000
RightUpLeg -19.252545 12.534941 21.840558
RightLeg -2.593630 -0.000000 0.000000
RightFoot -6.195127 -35.527323 3.196337
RightToeBase 9.231428 -0.000000 -0.000000
936
root 18.647637 32.730326 -17.381659 -171.954034 3.926133 -176.426608
Spine -19.579463 8.931718 2.911793
Head 12.297608 -4.947065 -7.710159
LeftShoulder -13.415234 -29.468541 -4.642417
LeftArm -42.526735 -8.920173 -49.274277
LeftForeArm 0.101676 -0.000000 7.078551
LeftHand -1.514180 -0.000000 2.793243
LeftHandThumb1 -26.253704 0.000000 33.147579
RightShoulder -9.198688 17.853926 -46.795084
RightArm 46.788971 47.515627 -6.631324
RightForeArm -42.695544 -0.000000 8.273178
RightHand -0.001758 -0.000000 -17.772395
RightHandThumb1 -24.326973 -0.000000 -32.862282
LeftUpLeg 11.469234 2.610577 -17.236221
LeftLeg -0.502544 -0.000000 0.000000
LeftFoot -36.670649 17.964230 -17.752894
LeftToeBase 25.137061 -0.000000 -0.000000
RightUpLeg -19.250484 12.552144 21.841099
RightLeg -2.579455 -0.000000 0.000000
RightFoot -6.222357 -35.566401 3.232273
RightToeBase 9.206300 -0.000000 -0.000000
937
root 18.650655 32.730461 -17.382246 -171.972271 3.913294 -176.431079
Spine -19.574914 8.929700 2.897389
Head 12.314607 -4.935365 -7.694311
LeftShoulder -13.404395 -29.467469 -4.634514
LeftArm -42.509605 -8.932883 -49.279620
LeftForeArm 0.132799 -0.000000 7.098848
LeftHand -1.478381 -0.000000 2.738015
LeftHandThumb1 -26.253704 0.000000 33.147579
RightShoulder -9.200033 17.825761 -46.775829
RightArm 46.784242 47.530344 -6.649212
RightForeArm -42.720707 -0.000000 8.290375
RightHand 0.006137 -0.000000 -17.768800
RightHandThumb1 -24.326973 -0.000000 -32.862282
LeftUpLeg 11.484872 2.605870 -17.234275
LeftLeg -0.492051 -0.000000 0.000000
LeftFoot -36.672687 17.973212 -17.743224
LeftToeBase 25.014619 -0.000000 -0.000000
RightUpLeg -19.244222 12.549214 21.838611
RightLeg -2.561863 -0.000000 0.000000
RightFoot -6.260022 -35.551943 3.270584
RightToeBase 9.122881 -0.000000 -0.000000
938
root 18.655036 32.730302 -17.382858 -171.991018 3.893461 -176.439697
Spine -19.562706 8.914661 2.873202
Head 12.310537 -4.927711 -7.661962
LeftShoulder -13.399987 -29.477988 -4.615052
LeftArm -42.494987 -8.936415 -49.289105
LeftForeArm 0.142346 -0.000000 7.117076
LeftHand -1.487939 0.000000 2.798775
LeftHandThumb1 -26.253704 0.000000 33.147579
RightShoulder -9.214846 17.809274 -46.751959
RightArm 46.789281 47.526373 -6.676934
RightForeArm -42.711570 0.000000 8.291574
RightHand 0.002886 -0.000000 -17.765292
RightHandThumb1 -24.326973 -0.000000 -32.862282
LeftUpLeg 11.504273 2.574737 -17.235790
LeftLeg -0.485400 -0.000000 0.000000
LeftFoot -36.671054 17.999204 -17.737305
LeftToeBase 24.972110 -0.000000 -0.000000
RightUpLeg -19.234920 12.548249 21.833709
RightLeg -2.555542 -0.000000 0.000000
RightFoot -6.278032 -35.581278 3.284555
RightToeBase 9.171791 -0.000000 -0.000000
939
root 18.658670 32.730150 -17.384368 -172.006207 3.871016 -176.443237
Spine -19.563211 8.903168 2.862015
Head 12.326000 -4.927126 -7.650896
LeftShoulder -13.384592 -29.476066 -4.606984
LeftArm -42.480023 -8.928013 -49.307110
LeftForeArm 0.148980 -0.000000 7.130031
LeftHand -1.525552 0.000000 2.824091
LeftHandThumb1 -26.253704 0.000000 33.147579
RightShoulder -9.218647 17.771427 -46.743114
RightArm 46.753051 47.509238 -6.732924
RightForeArm -42.689056 -0.000000 8.301279
RightHand 0.006155 -0.000000 -17.780564
RightHandThumb1 -24.326973 -0.000000 -32.862282
LeftUpLeg 11.514436 2.569001 -17.228068
LeftLeg -0.463768 -0.000000 0.000000
LeftFoot -36.637947 17.997986 -17.674083
LeftToeBase 24.542381 -0.000000 -0.000000
RightUpLeg -19.219925 12.544270 21.832675
RightLeg -2.564095 -0.000000 0.000000
RightFoot -6.246156 -35.588570 3.254539
RightToeBase 9.063081 -0.000000 -0.000000
940
root 18.662191 32.729951 -17.385787 -172.031911 3.843098 -176.458590
Spine -19.548719 8.873998 2.838365
Head 12.335821 -4.918236 -7.617060
LeftShoulder -13.372811 -29.471959 -4.595088
LeftArm -42.464478 -8.936610 -49.315834
LeftForeArm 0.160822 -0.000000 7.149932
LeftHand -1.541266 -0.000000 2.824326
LeftHandThumb1 -26.253704 0.000000 33.147579
RightShoulder -9.218072 17.730842 -46.708219
RightArm 46.729927 47.506468 -6.802092
RightForeArm -42.682971 -0.000000 8.281664
RightHand 0.019087 -0.000000 -17.820262
RightHandThumb1 -24.326973 -0.000000 -32.862282
LeftUpLeg 11.538155 2.548975 -17.230672
LeftLeg -0.448603 -0.000000 0.000000
LeftFoot -36.649178 17.992370 -17.677407
LeftToeBase 24.582405 -0.000000 -0.000000
RightUpLeg -19.198980 12.529072 21.825012
RightLeg -2.570887 -0.000000 0.000000
RightFoot -6.278396 -35.606324 3.286187
RightToeBase 9.234050 -0.000000 -0.000000
941
root 18.665703 32.730037 -17.387101 -172.048170 3.822093 -176.464964
Spine -19.544359 8.856955 2.827856
Head 12.345126 -4.919222 -7.599405
LeftShoulder -13.364809 -29.490486 -4.584251
LeftArm -42.460427 -8.916753 -49.322236
LeftForeArm 0.150030 -0.000000 7.145534
LeftHand -1.537117 -0.000000 2.823178
LeftHandThumb1 -26.253704 0.000000 33.147579
RightShoulder -9.213273 17.723865 -46.686347
RightArm 46.721406 47.491322 -6.835621
RightForeArm -42.694188 0.000000 8.284148
RightHand 0.049059 0.000000 -17.853923
RightHandThumb1 -24.326973 -0.000000 -32.862282
LeftUpLeg 11.556350 2.518639 -17.229730
LeftLeg -0.440420 -0.000000 0.000000
LeftFoot -36.640703 18.005661 -17.657250
LeftToeBase 24.456814 -0.000000 -0.000000
RightUpLeg -19.195813 12.488027 21.837515
RightLeg -2.550279 -0.000000 0.000000
RightFoot -6.290820 -35.587191 3.292930
RightToeBase 9.148788 -0.000000 -0.000000
942
root 18.669950 32.730394 -17.388986 -172.066284 3.788860 -176.473571
Spine -19.542471 8.825999 2.816624
Head 12.362336 -4.908336 -7.577772
LeftShoulder -13.352367 -29.489904 -4.577891
LeftArm -42.444776 -8.902071 -49.334691
LeftForeArm 0.132526 -0.000000 7.147640
LeftHand -1.536248 -0.000000 2.846923
LeftHandThumb1 -26.253704 0.000000 33.147579
RightShoulder -9.209192 17.685495 -46.661773
RightArm 46.705486 47.495035 -6.872066
RightForeArm -42.695703 0.000000 8.297515
RightHand 0.046705 0.000000 -17.851986
RightHandThumb1 -24.326973 -0.000000 -32.862282
LeftUpLeg 11.576362 2.486636 -17.226414
LeftLeg -0.426977 -0.000000 0.000000
LeftFoot -36.652937 18.010095 -17.655627
LeftToeBase 24.443285 -0.000000 -0.000000
RightUpLeg -19.177729 12.479977 21.831012
RightLeg -2.563501 -0.000000 0.000000
RightFoot -6.280391 -35.609733 3.254037
RightToeBase 9.195409 -0.000000 -0.000000
943
root 18.674051 32.730254 -17.390747 -172.084607 3.765623 -176.487061
Spine -19.539905 8.806974 2.799015
Head 12.381403 -4.922582 -7.562864
LeftShoulder -13.332965 -29.487036 -4.570369
LeftArm -42.431805 -8.901682 -49.333777
LeftForeArm 0.160623 -0.000000 7.145839
LeftHand -1.564095 0.000000 2.822256
LeftHandThumb1 -26.253704 0.000000 33.147579
RightShoulder -9.218300 17.705721 -46.658586
RightArm 46.774015 47.481261 -6.791798
RightForeArm -42.768984 0.000000 8.298489
RightHand 0.067108 -0.000000 -17.887665
RightHandThumb1 -24.326973 -0.000000 -32.862282
LeftUpLeg 11.596832 2.448181 -17.232488
LeftLeg -0.417039 -0.000000 0.000000
LeftFoot -36.648484 18.026618 -17.644828
LeftToeBase 24.338417 -0.000000 -0.000000
RightUpLeg -19.166544 12.462486 21.825585
RightLeg -2.557060 -0.000000 0.000000
RightFoot -6.304068 -35.621381 3.258642
RightToeBase 9.070171 -0.000000 -0.000000
944
root 18.678294 32.730370 -17.392479 -172.096743 3.744995 -176.495511
Spine -19.538179 8.788333 2.789939
Head 12.380775 -4.936280 -7.551400
LeftShoulder -13.330663 -29.499814 -4.555061
LeftArm -42.425889 -8.876938 -49.339064
LeftForeArm 0.144421 -0.000000 7.142229
LeftHand -1.555651 -0.000000 2.805462
LeftHandThumb1 -26.253704 0.000000 33.147579
RightShoulder -9.227839 17.714878 -46.653544
RightArm 46.794639 47.454176 -6.777517
RightForeArm -42.777055 -0.000000 8.298442
RightHand 0.084503 -0.000000 -17.893441
RightHandThumb1 -24.326973 -0.000000 -32.862282
LeftUpLeg 11.614081 2.425039 -17.230746
LeftLeg -0.413113 -0.000000 0.000000
LeftFoot -36.650713 18.017762 -17.657001
LeftToeBase 24.451650 -0.000000 -0.000000
RightUpLeg -19.151548 12.466962 21.819404
RightLeg -2.571384 -0.000000 0.000000
RightFoot -6.312847 -35.653866 3.271747
RightToeBase 9.072732 -0.000000 -0.000000
945
root 18.683854 32.731098 -17.394507 -172.099661 3.707830 -176.498732
Spine -19.555429 8.761029 2.777394
Head 12.405949 -4.942439 -7.528227
LeftShoulder -13.318011 -29.494564 -4.540176
LeftArm -42.416309 -8.876188 -49.331213
LeftForeArm 0.168687 0.000000 7.138187
LeftHand -1.571207 -0.000000 2.785473
LeftHandThumb1 -26.253704 0.000000 33.147579
RightShoulder -9.230570 17.692760 -46.630030
RightArm 46.839699 47.480715 -6.725114
RightForeArm -42.816139 -0.000000 8.304086
RightHand 0.092055 0.000000 -17.860634
RightHandThumb1 -24.326973 -0.000000 -32.862282
LeftUpLeg 11.624250 2.375108 -17.221321
LeftLeg -0.402441 -0.000000 0.000000
LeftFoot -36.651196 18.034019 -17.631883
LeftToeBase 24.413751 -0.000000 -0.000000
RightUpLeg -19.149345 12.456083 21.821721
RightLeg -2.579874 -0.000000 0.000000
RightFoot -6.338586 -35.662385 3.324443
RightToeBase 9.052769 -0.000000 -0.000000
